<?xml version="1.0" encoding="utf-8"?>
<!-- Generator: Adobe Illustrator 16.0.0, SVG Export Plug-In . SVG Version: 6.00 Build 0)  -->
<!DOCTYPE svg PUBLIC "-//W3C//DTD SVG 1.1//EN" "http://www.w3.org/Graphics/SVG/1.1/DTD/svg11.dtd">
<svg version="1.1" id="Layer_1" xmlns="http://www.w3.org/2000/svg" xmlns:xlink="http://www.w3.org/1999/xlink" x="0px" y="0px"
	 width="291.332px" height="229.117px" viewBox="0 0 291.332 229.117" enable-background="new 0 0 291.332 229.117"
	 xml:space="preserve">
<path fill="#21767B" d="M245.425,219.117c0,5.522-4.478,10-10,10h-180c-5.522,0-10-4.478-10-10V106.648c0-5.523,4.478-10,10-10h180
	c5.522,0,10,4.477,10,10V219.117z"/>
<path fill="#010101" d="M278.039,132.613h-10C268.039,65.004,213.033,10,145.422,10C77.813,10,22.811,65.004,22.811,132.613h-10
	C12.811,59.49,72.3,0,145.422,0C218.547,0,278.039,59.49,278.039,132.613z"/>
<g>
	<circle fill="#FFFFFF" cx="188.939" cy="146.607" r="33.919"/>
	<circle fill="#121417" cx="188.939" cy="146.608" r="26.751"/>
	<path fill="#FFFFFF" d="M199.836,140.445c-6.02,6.02-15.775,6.021-21.793,0.002c-6.016-6.018-6.016-15.772,0.001-21.791
		c6.017-6.015,15.772-6.017,21.79-0.001C205.852,124.674,205.85,134.432,199.836,140.445z"/>
</g>
<g>
	<circle fill="#FFFFFF" cx="102.939" cy="146.607" r="33.919"/>
	<circle fill="#121417" cx="102.939" cy="146.607" r="26.75"/>
	<path fill="#FFFFFF" d="M113.836,140.446c-6.02,6.019-15.774,6.019-21.792,0.001c-6.017-6.017-6.016-15.772,0.002-21.792
		c6.015-6.015,15.772-6.017,21.788,0C119.853,124.674,119.851,134.432,113.836,140.446z"/>
</g>
<rect x="21.105" y="126.016" fill="#121417" width="15.478" height="78.054"/>
<path fill="#FFFFFF" d="M144.969,210.15c-12.164,0-24.328-4.63-33.588-13.891c-1.172-1.171-1.172-3.071,0-4.242
	c1.172-1.172,3.07-1.172,4.242,0c16.182,16.18,42.509,16.179,58.689,0c1.172-1.172,3.07-1.172,4.242,0
	c1.172,1.171,1.172,3.071,0,4.242C169.296,205.521,157.132,210.15,144.969,210.15z"/>
<rect x="139.758" y="56.898" fill="#010101" width="11.334" height="39.75"/>
<circle fill="#21767B" cx="145.425" cy="56.898" r="16.731"/>
<path fill="#121417" d="M36.583,121.071H10c-5.523,0-10,4.478-10,10v67.942c0,5.522,4.477,10,10,10h26.583V121.071z"/>
<path fill="#121417" d="M254.747,209.014h26.584c5.522,0,10.001-4.478,10.001-10v-67.942c0-5.522-4.479-10-10.001-10h-26.584
	V209.014z"/>
</svg>
