<?xml version="1.0" encoding="utf-8"?>
<!-- Generator: Adobe Illustrator 16.0.0, SVG Export Plug-In . SVG Version: 6.00 Build 0)  -->
<!DOCTYPE svg PUBLIC "-//W3C//DTD SVG 1.1//EN" "http://www.w3.org/Graphics/SVG/1.1/DTD/svg11.dtd">
<svg version="1.1" id="Layer_1" xmlns="http://www.w3.org/2000/svg" xmlns:xlink="http://www.w3.org/1999/xlink" x="0px" y="0px"
	 width="291.332px" height="256.281px" viewBox="0 229.938 291.332 256.281" enable-background="new 0 229.938 291.332 256.281"
	 xml:space="preserve">
<path fill="#222222" d="M140.66,486.219v-26.582c0-5.522-4.478-10-10-10H62.718c-5.522,0-10,4.478-10,10v26.582H140.66z"/>
<path fill="#222222" d="M238.132,486.219v-26.582c0-5.522-4.478-10-10-10h-67.942c-5.521,0-10,4.478-10,10v26.582H238.132z"/>
<path fill="#222222" d="M245.425,429.649c0,5.521-4.478,10-10,10h-180c-5.522,0-10-4.479-10-10V249.648c0-5.522,4.478-10,10-10h180
	c5.522,0,10,4.478,10,10V429.649z"/>
<g>
	<circle fill="#FFFFFF" cx="145.425" cy="315.043" r="85.105"/>
	<path fill="#111111" d="M223.471,315.043c0,43.104-34.938,78.045-78.046,78.045c-43.106,0-78.045-34.94-78.045-78.045
		c0-43.102,34.938-78.043,78.045-78.043C188.529,237,223.471,271.943,223.471,315.043z"/>
</g>
<circle fill="#BB1111" cx="145.425" cy="315.045" r="37.893"/>
<path fill="#FFFFFF" d="M73.566,386.907c0,0-0.45-60.945-0.45-65.32s1.691-8.109,3.737-10.561
	c2.046-2.453,15.47-18.542,15.47-18.542c0.904-1.075,2.189-1.707,3.49-1.707c1.03,0,2.061,0.351,2.915,1.062
	c1.925,1.609,2.179,4.476,0.572,6.397c0,0-14.129,16.854-15.07,17.993c-0.941,1.137-2.029,3.928-2.029,5.711
	c0,1.78,0.454,64.959,0.454,64.959c9.249,2.065,16.187,10.33,16.188,20.196c-0.001,11.414-9.294,20.701-20.709,20.703
	c-11.416,0-20.708-9.289-20.709-20.703C57.426,397.245,64.335,388.995,73.566,386.907z"/>
<circle fill="#222222" cx="77.621" cy="407.565" r="9.971"/>
<circle fill="#111111" cx="145.425" cy="315.043" r="9.971"/>
<circle fill="#FFFFFF" cx="223.371" cy="417.678" r="9.971"/>
<circle fill="#FFFFFF" cx="191.43" cy="417.678" r="9.971"/>
<path fill="#222222" d="M36.583,287.15c0-5.521-4.478-10-10-10H10c-5.523,0-10,4.479-10,10v16.584c0,5.521,4.477,10.001,10,10.001
	h16.583c5.522,0,10-4.479,10-10.001V287.15z"/>
<path fill="#222222" d="M289.104,287.15c0-5.521-4.479-10-10-10H262.52c-5.521,0-10,4.479-10,10v16.584
	c0,5.521,4.479,10.001,10,10.001h16.584c5.521,0,10-4.479,10-10.001V287.15z"/>
</svg>
